<svg width="190" height="46" viewBox="0 0 190 46" fill="none" xmlns="http://www.w3.org/2000/svg">
<path d="M10.296 18.494C12.1133 15.7487 14.298 14.376 16.85 14.376C20.794 14.376 23.7327 16.058 25.666 19.422C26.0913 18.842 26.594 18.2427 27.174 17.624C27.7927 16.9667 28.7593 16.2707 30.074 15.536C31.3887 14.7627 32.742 14.376 34.134 14.376C37.2273 14.376 39.818 15.5747 41.906 17.972C43.994 20.3307 45.038 24.2553 45.038 29.746V39.896C45.038 40.7853 44.9993 41.462 44.922 41.926C44.8833 42.3513 44.7093 42.854 44.4 43.434C43.8973 44.478 42.4087 45 39.934 45C37.498 45 36.0093 44.4587 35.468 43.376C35.1973 42.796 35.0233 42.2933 34.946 41.868C34.9073 41.404 34.888 40.7273 34.888 39.838V29.688C34.888 26.324 33.6893 24.642 31.292 24.642C29.9387 24.642 29.0107 25.0867 28.508 25.976C28.044 26.8653 27.812 28.122 27.812 29.746V39.896C27.812 40.824 27.7733 41.5007 27.696 41.926C27.6573 42.3513 27.4833 42.854 27.174 43.434C26.6327 44.478 25.1247 45 22.65 45C20.214 45 18.7253 44.4587 18.184 43.376C17.9133 42.796 17.7393 42.2933 17.662 41.868C17.6233 41.404 17.604 40.7273 17.604 39.838V29.688C17.604 26.324 16.4053 24.642 14.008 24.642C11.688 24.642 10.528 26.324 10.528 29.688V39.954C10.528 40.8433 10.4893 41.52 10.412 41.984C10.3733 42.4093 10.1993 42.912 9.89 43.492C9.31 44.4973 7.802 45 5.366 45C2.93 45 1.44133 44.478 0.9 43.434C0.629333 42.854 0.455333 42.3513 0.378 41.926C0.339333 41.5007 0.32 40.824 0.32 39.896V19.48C0.32 18.5907 0.339333 17.9333 0.378 17.508C0.455333 17.044 0.648667 16.5413 0.958 16C1.538 14.956 2.91067 14.434 5.076 14.434C7.24133 14.434 8.65267 14.782 9.31 15.478C9.96733 16.174 10.296 17.1793 10.296 18.494ZM69.49 17.682C69.722 15.5167 71.2493 14.434 74.072 14.434C75.58 14.434 76.7013 14.55 77.436 14.782C78.1707 15.014 78.6733 15.42 78.944 16C79.2533 16.58 79.4273 17.102 79.466 17.566C79.5433 17.9913 79.582 18.6487 79.582 19.538V39.838C79.582 40.7273 79.5433 41.404 79.466 41.868C79.4273 42.2933 79.2727 42.796 79.002 43.376C78.4607 44.3813 77.1267 44.884 75 44.884C72.912 44.884 71.5007 44.6327 70.766 44.13C70.07 43.5887 69.664 42.8153 69.548 41.81C68.1173 43.8593 65.72 44.884 62.356 44.884C59.0307 44.884 55.9373 43.3567 53.076 40.302C50.2147 37.2473 48.784 33.7093 48.784 29.688C48.784 25.628 50.2147 22.09 53.076 19.074C55.976 16.0193 59.1467 14.492 62.588 14.492C63.9027 14.492 65.1013 14.724 66.184 15.188C67.2667 15.652 68.0207 16.0967 68.446 16.522C68.8713 16.9087 69.2193 17.2953 69.49 17.682ZM58.934 29.746C58.934 31.022 59.4367 32.182 60.442 33.226C61.4473 34.2313 62.6653 34.734 64.096 34.734C65.5267 34.734 66.706 34.212 67.634 33.168C68.6007 32.124 69.084 30.9833 69.084 29.746C69.084 28.47 68.62 27.2907 67.692 26.208C66.8027 25.1253 65.5847 24.584 64.038 24.584C62.53 24.584 61.2927 25.1253 60.326 26.208C59.398 27.2907 58.934 28.47 58.934 29.746ZM104.969 14.782C105.703 15.014 106.303 15.42 106.767 16C107.269 16.5413 107.521 17.4307 107.521 18.668C107.521 19.9053 107.153 21.2587 106.419 22.728C105.684 24.1973 104.621 24.932 103.229 24.932C102.533 24.932 101.856 24.7773 101.199 24.468C100.58 24.1587 99.7488 24.004 98.7048 24.004C97.6608 24.004 96.6748 24.3713 95.7468 25.106C94.8574 25.8407 94.4128 26.73 94.4128 27.774V39.954C94.4128 40.8433 94.3741 41.52 94.2968 41.984C94.2581 42.4093 94.0841 42.912 93.7748 43.492C93.1948 44.4973 91.6868 45 89.2508 45C87.3948 45 86.0608 44.6713 85.2488 44.014C84.6301 43.4727 84.2821 42.6413 84.2048 41.52C84.2048 41.1333 84.2048 40.5727 84.2048 39.838V19.48C84.2048 18.5907 84.2241 17.9333 84.2628 17.508C84.3401 17.044 84.5141 16.5413 84.7848 16C85.3261 14.956 86.8341 14.434 89.3088 14.434C91.6288 14.434 93.0788 14.8787 93.6588 15.768C94.0841 16.3867 94.2968 17.0247 94.2968 17.682C94.4901 17.4113 94.7608 17.0827 95.1088 16.696C95.4954 16.3093 96.2881 15.7873 97.4868 15.13C98.6854 14.4727 99.7294 14.144 100.619 14.144C101.547 14.144 102.32 14.202 102.939 14.318C103.557 14.3953 104.234 14.55 104.969 14.782ZM118.527 29.746C118.527 31.37 119.068 32.646 120.151 33.574C121.233 34.4633 122.374 34.908 123.573 34.908C124.81 34.908 125.951 34.56 126.995 33.864C128.077 33.1293 128.947 32.762 129.605 32.762C130.765 32.762 132.176 33.7867 133.839 35.836C134.728 36.9573 135.173 37.9627 135.173 38.852C135.173 40.3213 134.109 41.694 131.983 42.97C129.779 44.5167 127.072 45.29 123.863 45.29C120.267 45.29 116.806 43.9947 113.481 41.404C111.895 40.1667 110.6 38.5233 109.595 36.474C108.589 34.386 108.087 32.1047 108.087 29.63C108.087 27.1167 108.589 24.8547 109.595 22.844C110.6 20.7947 111.895 19.1513 113.481 17.914C116.69 15.362 120.112 14.086 123.747 14.086C125.216 14.086 126.647 14.2987 128.039 14.724C129.431 15.1107 130.455 15.4973 131.113 15.884L132.041 16.464C132.737 16.928 133.278 17.2953 133.665 17.566C134.67 18.3393 135.173 19.2287 135.173 20.234C135.173 21.2007 134.767 22.3027 133.955 23.54C132.563 25.6667 131.229 26.73 129.953 26.73C129.218 26.73 128.174 26.3047 126.821 25.454C126.125 24.7967 125.119 24.468 123.805 24.468C122.529 24.468 121.33 24.932 120.209 25.86C119.087 26.788 118.527 28.0833 118.527 29.746ZM158.756 17.682C158.988 15.5167 160.515 14.434 163.338 14.434C164.846 14.434 165.967 14.55 166.702 14.782C167.436 15.014 167.939 15.42 168.21 16C168.519 16.58 168.693 17.102 168.732 17.566C168.809 17.9913 168.848 18.6487 168.848 19.538V39.838C168.848 40.7273 168.809 41.404 168.732 41.868C168.693 42.2933 168.538 42.796 168.268 43.376C167.726 44.3813 166.392 44.884 164.266 44.884C162.178 44.884 160.766 44.6327 160.032 44.13C159.336 43.5887 158.93 42.8153 158.814 41.81C157.383 43.8593 154.986 44.884 151.622 44.884C148.296 44.884 145.203 43.3567 142.342 40.302C139.48 37.2473 138.05 33.7093 138.05 29.688C138.05 25.628 139.48 22.09 142.342 19.074C145.242 16.0193 148.412 14.492 151.854 14.492C153.168 14.492 154.367 14.724 155.45 15.188C156.532 15.652 157.286 16.0967 157.712 16.522C158.137 16.9087 158.485 17.2953 158.756 17.682ZM148.2 29.746C148.2 31.022 148.702 32.182 149.708 33.226C150.713 34.2313 151.931 34.734 153.362 34.734C154.792 34.734 155.972 34.212 156.9 33.168C157.866 32.124 158.35 30.9833 158.35 29.746C158.35 28.47 157.886 27.2907 156.958 26.208C156.068 25.1253 154.85 24.584 153.304 24.584C151.796 24.584 150.558 25.1253 149.592 26.208C148.664 27.2907 148.2 28.47 148.2 29.746ZM173.47 19.538C173.47 18.6487 173.49 17.9913 173.528 17.566C173.606 17.102 173.78 16.58 174.05 16C174.592 14.9947 176.1 14.492 178.574 14.492C180.43 14.492 181.745 14.8207 182.518 15.478C183.176 16.0193 183.524 16.8507 183.562 17.972C183.601 18.3587 183.62 18.9193 183.62 19.654V39.954C183.62 40.8433 183.582 41.52 183.504 41.984C183.466 42.4093 183.292 42.912 182.982 43.492C182.48 44.4973 180.991 45 178.516 45C176.08 45 174.592 44.478 174.05 43.434C173.78 42.854 173.606 42.3513 173.528 41.926C173.49 41.5007 173.47 40.824 173.47 39.896V19.538ZM177.124 11.592C177.124 11.592 176.544 11.7273 175.384 11.998C174.224 11.998 173.277 10.8573 172.542 8.576C172.233 7.648 172.078 6.85533 172.078 6.198C172.078 5.54066 172.194 5.038 172.426 4.69C172.813 4.18733 173.528 3.78133 174.572 3.472L184.142 0.513999C185.148 0.243331 185.728 0.107997 185.882 0.107997C187.042 0.107997 187.97 1.24866 188.666 3.53C188.976 4.458 189.13 5.25066 189.13 5.908C189.13 6.52666 189.014 7.01 188.782 7.358C188.396 7.86066 187.68 8.26666 186.636 8.576L177.124 11.592Z" fill="#EA5812"/>
</svg>
