<svg width="58" height="58" viewBox="0 0 58 58" fill="none" xmlns="http://www.w3.org/2000/svg">
<rect width="58" height="58" rx="8" fill="#FF914D"/>
<path d="M19.176 20.064C20.68 17.792 22.488 16.656 24.6 16.656C27.864 16.656 30.296 18.048 31.896 20.832C32.248 20.352 32.664 19.856 33.144 19.344C33.656 18.8 34.456 18.224 35.544 17.616C36.632 16.976 37.752 16.656 38.904 16.656C41.464 16.656 43.608 17.648 45.336 19.632C47.064 21.584 47.928 24.832 47.928 29.376V37.776C47.928 38.512 47.896 39.072 47.832 39.456C47.8 39.808 47.656 40.224 47.4 40.704C46.984 41.568 45.752 42 43.704 42C41.688 42 40.456 41.552 40.008 40.656C39.784 40.176 39.64 39.76 39.576 39.408C39.544 39.024 39.528 38.464 39.528 37.728V29.328C39.528 26.544 38.536 25.152 36.552 25.152C35.432 25.152 34.664 25.52 34.248 26.256C33.864 26.992 33.672 28.032 33.672 29.376V37.776C33.672 38.544 33.64 39.104 33.576 39.456C33.544 39.808 33.4 40.224 33.144 40.704C32.696 41.568 31.448 42 29.4 42C27.384 42 26.152 41.552 25.704 40.656C25.48 40.176 25.336 39.76 25.272 39.408C25.24 39.024 25.224 38.464 25.224 37.728V29.328C25.224 26.544 24.232 25.152 22.248 25.152C20.328 25.152 19.368 26.544 19.368 29.328V37.824C19.368 38.56 19.336 39.12 19.272 39.504C19.24 39.856 19.096 40.272 18.84 40.752C18.36 41.584 17.112 42 15.096 42C13.08 42 11.848 41.568 11.4 40.704C11.176 40.224 11.032 39.808 10.968 39.456C10.936 39.104 10.92 38.544 10.92 37.776V20.88C10.92 20.144 10.936 19.6 10.968 19.248C11.032 18.864 11.192 18.448 11.448 18C11.928 17.136 13.064 16.704 14.856 16.704C16.648 16.704 17.816 16.992 18.36 17.568C18.904 18.144 19.176 18.976 19.176 20.064Z" fill="white"/>
</svg>
